<svg width="30" height="31" fill="none" xmlns="http://www.w3.org/2000/svg"><g clip-path="url(#clip0_61_13094)"><path d="M6.649 19.036l-1.045 3.898-3.816.08A14.933 14.933 0 010 15.907c0-2.487.605-4.833 1.677-6.898h.001l3.398.623 1.488 3.377a8.916 8.916 0 00-.48 2.898 8.88 8.88 0 00.565 3.13z" fill="#FBBB00"/><path d="M29.738 13.104c.172.907.262 1.845.262 2.802 0 1.074-.113 2.122-.328 3.132a14.997 14.997 0 01-5.281 8.566v-.001l-4.28-.219-.607-3.78a8.94 8.94 0 003.847-4.566h-8.02v-5.934h14.407z" fill="#518EF8"/><path d="M24.39 27.603A14.937 14.937 0 0115 30.907c-5.713 0-10.68-3.193-13.213-7.891l4.861-3.98a8.919 8.919 0 0012.856 4.568l4.885 4z" fill="#28B446"/><path d="M24.575 4.36l-4.86 3.978a8.922 8.922 0 00-13.15 4.67l-4.886-4h-.001C4.174 4.195 9.203.906 15 .906c3.64 0 6.977 1.297 9.575 3.454z" fill="#F14336"/></g><defs><clipPath id="clip0_61_13094"><path fill="#fff" transform="translate(0 .906)" d="M0 0h30v30H0z"/></clipPath></defs></svg>