<svg width="30" height="31" viewBox="0 0 30 31" fill="none" xmlns="http://www.w3.org/2000/svg">
<g clip-path="url(#clip0_61_13094)">
<path d="M6.64863 19.0357L5.60438 22.934L1.78764 23.0148C0.646992 20.8991 0 18.4786 0 15.9063C0 13.4189 0.604922 11.0733 1.67719 9.00793H1.67801L5.07598 9.6309L6.56449 13.0085C6.25295 13.9167 6.08314 14.8917 6.08314 15.9063C6.08326 17.0074 6.28271 18.0624 6.64863 19.0357Z" fill="#FBBB00"/>
<path d="M29.7382 13.104C29.9105 14.0114 30.0003 14.9485 30.0003 15.9062C30.0003 16.9801 29.8874 18.0276 29.6723 19.0381C28.9421 22.4765 27.0341 25.479 24.391 27.6037L24.3902 27.6029L20.1103 27.3845L19.5045 23.6032C21.2584 22.5746 22.629 20.965 23.351 19.0381H15.3301V13.104H23.468H29.7382Z" fill="#518EF8"/>
<path d="M24.3893 27.6029L24.3901 27.6038C21.8196 29.6699 18.5541 30.9062 14.9995 30.9062C9.28711 30.9062 4.32064 27.7134 1.78711 23.0147L6.64811 19.0356C7.91484 22.4164 11.1761 24.823 14.9995 24.823C16.6429 24.823 18.1825 24.3788 19.5036 23.6032L24.3893 27.6029Z" fill="#28B446"/>
<path d="M24.575 4.35953L19.7156 8.33781C18.3484 7.48316 16.7321 6.98945 15.0005 6.98945C11.0906 6.98945 7.76838 9.50646 6.5651 13.0084L1.67855 9.00789H1.67773C4.17418 4.19471 9.20328 0.90625 15.0005 0.90625C18.6401 0.90625 21.9772 2.2027 24.575 4.35953Z" fill="#F14336"/>
</g>
<defs>
<clipPath id="clip0_61_13094">
<rect width="30" height="30" fill="white" transform="translate(0 0.90625)"/>
</clipPath>
</defs>
</svg>
